<?xml version="1.0" standalone="no"?>
<!DOCTYPE svg PUBLIC "-//W3C//DTD SVG 20010904//EN"
 "http://www.w3.org/TR/2001/REC-SVG-20010904/DTD/svg10.dtd">
<svg version="1.0" xmlns="http://www.w3.org/2000/svg"
 width="1996.000000pt" height="668.000000pt" viewBox="0 0 1996.000000 668.000000"
 preserveAspectRatio="xMidYMid meet">

<g transform="translate(0.000000,668.000000) scale(0.100000,-0.100000)"
fill="#000000" stroke="none">
<path d="M0 3340 l0 -3340 9980 0 9980 0 0 3340 0 3340 -9980 0 -9980 0 0
-3340z m13288 3254 l22 -6 0 -3264 0 -3263 -20 -11 c-12 -6 -40 -10 -63 -8
l-42 3 -3 3278 -2 3277 42 0 c24 0 53 -3 66 -6z m-8148 -1125 c260 -38 449
-199 535 -454 37 -112 47 -189 52 -442 l5 -253 -249 0 -250 0 -7 61 c-3 34 -6
139 -6 234 0 235 -20 295 -117 352 -37 22 -62 28 -129 31 -76 4 -89 2 -139
-23 -63 -30 -96 -69 -119 -138 -14 -42 -16 -158 -16 -1057 0 -993 0 -1010 20
-1064 39 -103 125 -151 257 -144 95 4 145 27 190 85 45 60 52 110 57 422 3
150 7 275 9 277 2 2 113 5 248 6 l244 3 3 -220 c4 -249 -11 -454 -38 -552 -72
-250 -239 -419 -480 -485 -74 -20 -109 -23 -265 -23 -206 0 -267 11 -400 75
-170 81 -283 227 -345 445 -37 129 -41 285 -37 1275 4 1033 1 986 63 1160 75
207 243 361 454 415 126 33 296 38 460 14z m1624 -28 c3 -4 30 -163 60 -352
30 -189 89 -551 131 -804 107 -650 143 -871 164 -1023 11 -73 21 -135 23 -137
4 -4 37 195 78 470 10 72 28 191 39 265 11 74 29 198 41 275 11 77 29 196 40
265 19 119 104 690 136 905 8 55 16 110 19 123 l5 22 371 0 370 0 -5 -1660
c-2 -912 -7 -1664 -11 -1670 -7 -11 -393 -14 -457 -4 l-38 7 -1 1071 c0 589
-4 1089 -8 1111 l-7 40 -7 -55 c-4 -30 -14 -98 -23 -150 -8 -52 -41 -275 -74
-495 -33 -220 -67 -440 -75 -490 -8 -49 -26 -171 -40 -270 -14 -99 -32 -220
-40 -270 -8 -49 -28 -179 -44 -289 -16 -109 -34 -203 -39 -208 -5 -5 -111 -8
-246 -6 -196 2 -238 6 -246 18 -11 17 -18 59 -120 680 -44 267 -113 690 -154
940 -41 250 -78 476 -81 502 -5 35 -10 44 -19 36 -8 -8 -10 -285 -8 -1074 2
-738 -1 -1070 -8 -1084 -10 -19 -21 -20 -198 -20 -103 0 -204 3 -224 6 l-38 7
0 1657 c0 911 3 1660 7 1663 10 10 721 8 727 -2z m3274 -233 l-3 -243 -450 -3
-450 -2 2 -453 3 -452 360 -3 360 -2 -2 -243 -3 -242 -360 -3 -360 -2 0 -480
0 -480 450 -2 450 -3 3 -234 c2 -181 -1 -236 -10 -243 -17 -10 -1389 -10
-1406 1 -11 7 -13 304 -13 1657 1 907 1 1655 1 1662 0 9 150 12 715 12 l715 0
-2 -242z m5359 -244 c-3 -3 -12 -4 -19 -1 -8 3 -5 6 6 6 11 1 17 -2 13 -5z
m2055 -40 c54 -13 108 -28 120 -33 82 -32 108 -46 108 -58 0 -8 -18 -44 -41
-81 -58 -96 -199 -389 -199 -415 0 -7 -7 -24 -14 -39 -8 -15 -29 -74 -46 -130
-17 -57 -35 -114 -40 -128 -8 -24 -40 -143 -54 -202 -3 -16 -10 -28 -15 -28
-5 0 -29 39 -53 88 -98 196 -327 496 -487 637 -44 39 -83 79 -87 90 -5 16 9
35 77 98 146 138 289 206 470 225 94 10 141 6 261 -24z m-292 -1274 c0 -5 -5
-10 -11 -10 -5 0 -7 5 -4 10 3 6 8 10 11 10 2 0 4 -4 4 -10z m-1963 -90 c22
-90 112 -356 166 -490 27 -69 58 -147 69 -175 11 -27 31 -75 45 -105 14 -30
45 -100 70 -154 46 -103 134 -273 188 -361 41 -69 199 -294 227 -325 13 -14
45 -52 72 -85 162 -197 440 -433 686 -582 237 -142 604 -291 860 -347 392 -86
504 -118 525 -150 13 -21 -15 -47 -80 -72 -44 -17 -75 -19 -261 -17 -392 3
-710 56 -1069 180 -383 132 -807 354 -1085 566 -206 158 -411 348 -550 512
-320 377 -528 912 -467 1201 43 202 200 357 437 432 36 12 72 23 80 26 8 3 28
4 44 3 26 -2 30 -7 43 -57z m2106 -390 c3 -11 1 -18 -4 -14 -5 3 -9 12 -9 20
0 20 7 17 13 -6z m-5228 -1472 c28 1 60 0 73 -3 31 -7 29 -48 -3 -73 -23 -18
-40 -20 -150 -20 l-125 1 0 27 c0 53 45 84 110 73 25 -4 68 -6 95 -5z m-10235
-143 c47 -25 71 -69 81 -151 5 -41 7 -79 4 -84 -8 -13 -85 -13 -105 0 -9 5
-17 31 -20 67 -5 52 -8 59 -34 68 -24 8 -31 6 -48 -14 -18 -23 -19 -39 -16
-247 3 -200 5 -224 22 -243 17 -18 21 -19 46 -6 28 15 40 50 40 126 0 36 1 37
45 43 25 4 49 5 54 2 14 -9 20 -86 11 -144 -13 -75 -47 -117 -112 -137 -92
-27 -175 4 -212 80 -17 36 -19 65 -20 275 -1 205 1 241 17 282 36 94 151 133
247 83z m1246 -10 c35 -26 65 -92 67 -146 2 -29 -2 -34 -30 -42 -52 -16 -80
-3 -88 40 -11 63 -40 80 -77 46 -21 -18 -24 -73 -6 -106 6 -12 44 -57 85 -101
97 -103 113 -136 113 -228 0 -84 -19 -126 -72 -158 -43 -26 -139 -27 -188 -2
-47 23 -80 89 -80 159 0 51 0 52 34 58 59 11 70 5 82 -51 14 -65 20 -74 46
-74 34 0 58 29 58 69 0 44 -13 64 -101 158 -38 40 -78 91 -89 113 -44 87 -35
193 22 249 56 55 163 62 224 16z m1519 24 c60 -15 111 -71 120 -131 4 -24 5
-150 3 -280 l-3 -238 -43 -42 -42 -43 -84 0 c-94 0 -127 15 -156 71 -20 38
-27 496 -9 561 14 52 65 94 124 104 22 4 41 7 43 8 2 0 23 -4 47 -10z m2224
-26 c45 -34 62 -75 64 -155 l2 -73 -49 -3 c-27 -2 -53 1 -58 6 -5 5 -11 30
-14 57 -6 67 -17 82 -54 79 -17 -1 -34 -5 -38 -9 -4 -4 -8 -109 -9 -234 -3
-246 2 -271 51 -271 35 0 46 20 46 81 0 79 5 87 56 95 70 10 78 -3 69 -106 -5
-68 -11 -91 -31 -118 -35 -45 -77 -64 -143 -65 -66 0 -110 20 -143 65 -23 33
-23 36 -23 308 0 272 0 276 23 305 33 41 61 58 107 65 54 8 111 -3 144 -27z
m4041 21 c42 -8 86 -63 99 -124 22 -102 11 -130 -52 -130 -55 0 -67 13 -67 70
0 56 -17 83 -50 78 -46 -6 -51 -35 -48 -276 3 -233 5 -241 49 -242 35 0 49 24
55 97 5 49 11 74 21 77 19 8 92 -4 99 -16 3 -5 3 -45 -1 -89 -11 -128 -62
-181 -176 -182 -51 0 -66 4 -102 29 -68 48 -72 70 -69 349 1 136 7 254 13 273
12 37 65 81 112 92 31 8 52 7 117 -6z m830 -9 c55 -28 83 -87 84 -178 l1 -62
-55 0 -55 0 -10 60 c-13 77 -19 87 -53 79 -52 -13 -52 -12 -52 -234 0 -252 2
-267 42 -275 44 -10 59 10 65 91 3 38 9 73 13 78 5 5 29 5 57 -1 l48 -9 -3
-83 c-4 -117 -34 -169 -106 -181 -40 -7 -43 -26 -7 -45 77 -39 26 -145 -71
-145 -50 0 -96 48 -81 86 6 17 35 18 50 3 6 -6 23 -9 39 -7 l29 3 -33 20 c-27
16 -32 24 -27 46 5 23 2 27 -23 32 -41 8 -88 56 -101 103 -6 23 -11 136 -11
277 0 253 4 281 51 323 44 40 149 49 209 19z m797 10 c46 -9 100 -73 108 -127
4 -24 5 -147 3 -275 -3 -217 -4 -233 -24 -260 -39 -52 -81 -73 -148 -73 -78 0
-124 23 -153 75 -22 38 -23 50 -23 287 0 274 6 310 61 349 29 20 101 39 129
34 8 -2 29 -6 47 -10z m-10231 -36 c21 -21 39 -52 44 -75 5 -21 10 -144 10
-273 0 -231 0 -235 -25 -276 -46 -80 -159 -104 -247 -52 -75 44 -80 65 -76
368 3 280 2 275 69 325 31 23 42 25 111 22 74 -3 80 -5 114 -39z m259 27 c19
-14 34 -58 81 -246 14 -58 30 -109 34 -114 5 -5 6 65 4 155 -3 89 -3 173 0
185 7 27 51 39 89 25 l27 -10 -3 -353 -2 -353 -65 0 -65 0 -21 80 c-80 304
-95 359 -99 363 -3 3 -5 -97 -5 -221 l0 -227 -54 0 c-40 0 -55 4 -60 16 -9 23
-7 677 2 690 15 25 108 31 137 10z m993 8 c21 -6 23 -12 20 -58 l-3 -51 -97
-3 -98 -3 0 -89 c0 -102 -4 -97 100 -102 l55 -3 3 -52 3 -52 -78 -3 -78 -3 -3
-97 -3 -97 98 -3 98 -3 3 -52 3 -53 -160 0 -161 0 -2 183 c-4 362 1 530 14
539 15 9 252 11 286 2z m180 0 l22 -6 0 -304 0 -303 93 -3 92 -3 3 -43 c2 -24
-1 -49 -7 -55 -9 -12 -286 -15 -298 -4 -7 8 -6 704 2 717 7 11 57 13 93 4z
m350 0 c22 -6 22 -9 22 -155 l0 -149 60 0 60 0 0 150 0 149 35 7 c19 3 46 4
59 0 l23 -6 6 -322 c8 -416 10 -390 -33 -399 -19 -4 -47 -5 -62 -2 l-28 6 0
148 0 149 -60 0 -60 0 0 -149 0 -149 -43 -6 c-59 -9 -74 -1 -81 42 -3 20 -6
177 -6 349 0 270 2 314 16 327 16 17 52 20 92 10z m1054 -6 c9 -7 18 -29 21
-48 22 -172 63 -397 69 -386 7 13 23 110 53 329 7 54 16 101 19 104 9 10 112
16 141 9 l25 -6 0 -360 0 -359 -34 -6 c-73 -14 -92 18 -85 146 1 30 2 92 1
139 -3 118 -18 85 -37 -82 -24 -218 -16 -198 -85 -198 -32 0 -61 4 -64 9 -3 5
-15 69 -26 142 -11 74 -24 154 -29 179 l-9 45 -2 -55 c-1 -30 -1 -109 -1 -175
1 -66 -2 -126 -7 -133 -6 -9 -26 -12 -58 -10 l-49 3 -3 325 c-1 179 0 339 3
357 3 18 13 34 23 36 37 10 119 6 134 -5z m506 6 l22 -6 0 -298 c0 -325 0
-328 57 -314 15 4 31 12 35 18 4 6 8 143 8 303 l0 293 25 6 c14 3 41 3 60 0
l35 -7 0 -305 0 -305 -27 -46 c-31 -53 -74 -75 -148 -76 -92 -2 -144 38 -165
125 -15 67 -13 605 3 611 17 8 68 8 95 1z m457 -5 c6 -7 73 -237 86 -298 5
-24 11 -47 14 -49 3 -3 5 71 5 165 0 192 3 200 66 190 20 -4 39 -9 42 -12 3
-3 8 -165 10 -359 l4 -354 -43 -4 c-80 -8 -92 0 -112 78 -9 38 -36 136 -60
219 l-42 150 -3 -222 -2 -221 -28 -5 c-43 -9 -80 3 -86 26 -8 30 -7 656 1 686
6 22 9 23 74 19 37 -2 70 -6 74 -9z m384 5 l31 -6 0 -358 c0 -395 4 -370 -63
-370 -63 0 -61 -16 -59 371 2 401 -3 382 91 363z m599 0 l22 -6 0 -358 0 -358
-22 -6 c-49 -13 -87 -7 -99 15 -17 33 -5 699 13 710 15 10 54 11 86 3z m359
-18 c17 -8 42 -30 55 -48 21 -31 23 -43 23 -163 0 -104 -4 -136 -17 -161 -18
-34 -78 -64 -126 -64 -73 -1 -72 1 -72 -140 l0 -128 -43 -6 c-54 -8 -75 -1
-83 29 -3 12 -3 172 0 355 4 255 8 335 18 342 21 15 210 3 245 -16z m373 14
c13 -7 22 -33 34 -102 101 -598 102 -608 86 -618 -11 -7 -77 -4 -106 5 -6 2
-15 28 -18 59 -7 53 -9 56 -39 60 -86 12 -107 -2 -107 -72 0 -31 -5 -44 -17
-49 -23 -9 -90 -10 -98 -1 -4 4 2 66 14 140 20 131 76 483 86 545 5 25 11 33
33 36 54 8 114 7 132 -3z m274 0 l26 -10 0 -299 0 -300 93 -3 92 -3 0 -50 c0
-44 -3 -50 -25 -56 -31 -9 -243 -11 -264 -3 -14 5 -16 47 -16 364 0 277 3 359
13 363 20 9 54 8 81 -3z m701 -21 c56 -38 62 -63 69 -274 8 -225 -2 -331 -34
-372 -37 -47 -56 -52 -191 -53 l-127 0 -6 53 c-4 29 -6 187 -4 351 2 249 5
301 17 314 12 12 36 14 128 10 98 -5 118 -9 148 -29z m431 22 c12 -1 24 -76
16 -98 -3 -9 -32 -13 -98 -13 l-94 0 0 -95 0 -95 74 0 74 0 6 -35 c13 -67 4
-75 -80 -75 l-75 0 3 -101 3 -102 93 2 92 2 0 -55 c0 -52 -2 -56 -26 -62 -33
-8 -276 4 -284 14 -3 4 -4 165 -2 359 3 319 5 352 20 355 14 3 241 2 278 -1z
m538 -1 c22 -8 26 -16 26 -49 0 -21 -6 -43 -13 -49 -7 -6 -51 -12 -97 -14
l-85 -3 0 -90 0 -90 75 -5 75 -5 0 -50 0 -50 -75 -5 -75 -5 0 -95 0 -95 95 -5
95 -5 3 -47 c2 -38 -1 -49 -16 -57 -29 -15 -293 -5 -304 11 -4 7 -8 165 -8
350 0 293 2 339 16 352 12 13 40 16 139 16 68 0 135 -4 149 -10z m289 0 c84
-12 102 -24 129 -80 21 -43 22 -58 22 -285 0 -260 -2 -272 -59 -325 -24 -23
-36 -25 -148 -30 -67 -3 -127 -4 -134 -2 -9 3 -13 90 -15 350 -2 191 -1 352 0
359 7 23 94 29 205 13z m328 -11 c5 -8 9 -145 9 -306 0 -283 1 -292 20 -298
23 -7 62 3 72 19 4 6 8 142 8 302 0 257 2 293 16 298 26 10 69 7 88 -7 16 -12
17 -37 14 -322 -3 -285 -5 -312 -22 -338 -29 -43 -91 -71 -156 -71 -84 1 -131
35 -157 113 -17 53 -18 617 0 625 21 10 99 -1 108 -15z m933 11 c14 -5 27 -19
30 -32 2 -13 23 -142 46 -288 23 -146 46 -287 51 -313 17 -87 17 -87 -51 -87
-66 0 -65 -1 -75 73 l-6 47 -64 0 -64 0 -7 -51 c-9 -64 -23 -79 -72 -73 -54 8
-62 12 -57 26 7 19 62 353 80 488 20 144 32 192 53 208 19 14 100 16 136 2z
m805 4 c36 -7 31 6 61 -189 11 -77 34 -224 50 -328 17 -103 30 -192 30 -198 0
-6 -25 -9 -62 -7 l-63 3 -9 58 -9 57 -63 0 -63 0 -5 -32 c-3 -18 -7 -44 -8
-58 -3 -23 -7 -25 -60 -28 -66 -3 -66 -3 -49 85 5 26 19 109 30 183 59 374 72
444 83 452 16 9 93 10 137 2z"/>
<path d="M6492 4315 c0 -16 2 -22 5 -12 2 9 2 23 0 30 -3 6 -5 -1 -5 -18z"/>
<path d="M4514 1435 c-13 -21 -15 -55 -12 -243 3 -230 8 -252 49 -252 11 0 28
9 38 19 18 18 20 36 21 238 0 184 -2 222 -15 241 -22 30 -60 29 -81 -3z"/>
<path d="M12396 1438 c-13 -19 -16 -59 -16 -239 0 -201 1 -218 20 -242 24 -30
53 -26 76 9 21 31 17 452 -5 477 -19 24 -57 21 -75 -5z"/>
<path d="M2119 1453 c-26 -6 -29 -33 -29 -253 0 -213 7 -251 43 -258 10 -2 29
4 43 13 l25 16 -3 230 c-3 215 -4 232 -22 245 -20 14 -28 15 -57 7z"/>
<path d="M7272 1333 l3 -118 35 3 c19 1 39 7 45 13 12 12 19 137 11 184 -7 34
-8 35 -52 35 l-45 0 3 -117z"/>
<path d="M7691 1314 c-10 -45 -31 -201 -31 -231 0 -14 75 -19 83 -5 7 10 -23
253 -33 271 -5 9 -11 -3 -19 -35z"/>
<path d="M8590 1201 c0 -273 -1 -267 60 -254 17 3 35 14 40 24 15 27 13 452
-2 467 -7 7 -31 12 -55 12 l-43 0 0 -249z"/>
<path d="M9932 1203 l3 -258 30 2 c17 1 40 5 53 8 l22 5 0 235 c0 261 4 245
-73 259 l-37 7 2 -258z"/>
<path d="M11190 1308 c0 -18 -7 -73 -16 -122 -8 -49 -13 -95 -10 -102 6 -16
71 -19 80 -5 7 11 -10 146 -26 214 -14 54 -28 62 -28 15z"/>
<path d="M12008 1325 c-20 -72 -41 -232 -33 -245 7 -12 72 -13 79 -2 2 4 0 43
-5 87 -5 44 -12 112 -17 150 l-7 70 -17 -60z"/>
</g>
</svg>
