<svg width="642" height="626" viewBox="0 0 642 626" fill="none" xmlns="http://www.w3.org/2000/svg">
<g clip-path="url(#clip0_77_615)">
<path d="M409.478 140.327H375.319V431.745C375.319 436.317 374.419 440.844 372.67 445.069C370.922 449.293 368.359 453.131 365.128 456.364C361.897 459.597 358.061 462.162 353.839 463.912C349.618 465.661 345.093 466.562 340.524 466.562H79.3623V466.895C79.3623 471.467 80.2622 475.995 82.0108 480.219C83.7594 484.443 86.3224 488.282 89.5533 491.515C92.7843 494.748 96.62 497.312 100.841 499.062C105.063 500.812 109.587 501.712 114.157 501.712H409.478C414.047 501.712 418.572 500.812 422.793 499.062C427.015 497.312 430.85 494.748 434.081 491.515C437.312 488.282 439.875 484.443 441.624 480.219C443.372 475.995 444.272 471.467 444.272 466.895V175.144C444.272 165.91 440.606 157.054 434.081 150.524C427.556 143.995 418.706 140.327 409.478 140.327Z" fill="#D1E6FF"/>
<path opacity="0.3" d="M571.408 603.435C572.013 603.463 572.612 603.304 573.123 602.98C573.635 602.656 574.034 602.182 574.268 601.623C574.501 601.065 574.557 600.447 574.429 599.855C574.3 599.264 573.993 598.726 573.548 598.314L573.346 597.509C573.372 597.445 573.399 597.381 573.426 597.316C574.035 595.876 575.056 594.649 576.36 593.788C577.665 592.926 579.194 592.47 580.757 592.476C582.319 592.482 583.845 592.949 585.143 593.82C586.441 594.691 587.453 595.926 588.051 597.371C590.443 603.136 593.489 608.91 594.239 615.006C594.569 617.7 594.43 620.431 593.827 623.078C599.445 610.814 602.363 597.485 602.381 583.995C602.382 580.61 602.195 577.227 601.818 573.863C601.507 571.104 601.076 568.366 600.524 565.647C597.513 550.896 591.048 537.069 581.659 525.303C577.115 522.822 573.441 519.007 571.13 514.372C570.293 512.706 569.702 510.927 569.374 509.091C569.887 509.158 571.307 501.347 570.92 500.868C571.635 499.783 572.913 499.244 573.693 498.185C577.573 492.921 582.919 493.84 585.71 500.994C591.671 504.005 591.729 508.998 588.071 513.8C585.744 516.855 585.424 520.989 583.382 524.26C583.592 524.529 583.811 524.79 584.021 525.059C587.861 530 591.208 535.306 594.014 540.901C593.331 534.633 594.146 528.293 596.39 522.402C598.664 516.912 602.927 512.288 606.681 507.541C607.674 506.266 609.023 505.314 610.556 504.806C612.09 504.298 613.739 504.256 615.297 504.685C616.854 505.115 618.249 505.997 619.305 507.22C620.362 508.442 621.032 509.951 621.232 511.555C621.24 511.625 621.247 511.695 621.255 511.765C620.697 512.08 620.151 512.414 619.617 512.767C618.946 513.216 618.426 513.857 618.126 514.606C617.825 515.355 617.757 516.178 617.932 516.966C618.106 517.755 618.515 518.472 619.104 519.024C619.692 519.576 620.434 519.937 621.232 520.06L621.313 520.073C621.115 522.084 620.764 524.077 620.263 526.035C625.079 544.672 614.681 551.46 599.835 551.765C599.507 551.933 599.188 552.101 598.86 552.261C601.679 560.255 603.448 568.582 604.121 577.033C604.502 582.018 604.479 587.026 604.053 592.008L604.079 591.832C605.154 586.292 608.108 581.293 612.44 577.68C618.874 572.391 627.964 570.443 634.906 566.192C635.644 565.718 636.501 565.465 637.378 565.463C638.255 565.461 639.114 565.71 639.854 566.18C640.594 566.65 641.184 567.323 641.555 568.118C641.925 568.913 642.061 569.797 641.946 570.667L641.918 570.852C640.883 571.274 639.875 571.76 638.901 572.307C638.343 572.622 637.798 572.956 637.263 573.309C636.593 573.758 636.073 574.399 635.772 575.148C635.471 575.897 635.404 576.72 635.578 577.508C635.753 578.296 636.161 579.014 636.75 579.566C637.339 580.118 638.081 580.479 638.878 580.602L638.96 580.615C639.019 580.623 639.069 580.631 639.128 580.64C637.36 584.864 634.878 588.752 631.792 592.134C628.781 608.404 615.847 609.948 602.012 605.21H602.003C600.485 611.81 598.286 618.235 595.44 624.381H571.996C571.912 624.121 571.836 623.851 571.76 623.591C573.931 623.727 576.109 623.597 578.248 623.204C576.508 621.068 574.769 618.916 573.029 616.78C572.991 616.74 572.954 616.698 572.92 616.654C572.038 615.561 571.147 614.476 570.265 613.383L570.264 613.382C570.217 610.031 570.602 606.688 571.408 603.435Z" fill="#FFE600"/>
<path d="M313.186 100.685C314.042 101.983 315.17 103.079 316.491 103.898C317.812 104.717 319.295 105.239 320.837 105.428C322.379 105.616 323.944 105.468 325.423 104.992C326.903 104.516 328.261 103.725 329.405 102.672L378.147 124.677L387.544 112.682L329.461 86.9702C327.547 85.176 325.042 84.1467 322.42 84.0775C319.798 84.0082 317.242 84.9037 315.236 86.5943C313.23 88.2849 311.913 90.6531 311.536 93.2502C311.158 95.8472 311.745 98.4928 313.186 100.685Z" fill="#A0616A"/>
<path d="M522.368 114.407L527.202 141.82C527.427 143.098 527.383 144.41 527.072 145.671C526.761 146.932 526.19 148.114 525.395 149.14C524.601 150.167 523.601 151.017 522.459 151.634C521.317 152.251 520.059 152.622 518.765 152.724L436.621 159.188L340.063 115.946L351.596 94.0391L435.416 120.6L522.368 114.407Z" fill="#0F7BE2"/>
<path d="M330.116 94.7612H34.7944C15.578 94.7612 0 110.349 0 129.578V421.33C0 440.559 15.578 456.147 34.7944 456.147H330.116C349.332 456.147 364.91 440.559 364.91 421.33V129.578C364.91 110.349 349.332 94.7612 330.116 94.7612Z" fill="#F2F2F2"/>
<path d="M34.7942 101.921C31.1646 101.921 27.5705 102.637 24.2172 104.027C20.8639 105.417 17.817 107.454 15.2505 110.022C12.684 112.59 10.6481 115.639 9.25914 118.995C7.87015 122.35 7.15527 125.946 7.15527 129.578V421.33C7.15527 428.665 10.0672 435.7 15.2505 440.886C20.4338 446.073 27.4639 448.987 34.7942 448.987H223.275C240.935 448.987 258.422 445.506 274.738 438.744C291.054 431.981 305.878 422.069 318.366 409.573C330.853 397.078 340.759 382.243 347.517 365.917C354.275 349.59 357.754 332.092 357.754 314.42V129.578C357.754 125.946 357.039 122.35 355.65 118.995C354.261 115.639 352.225 112.59 349.659 110.022C347.092 107.454 344.045 105.417 340.692 104.027C337.339 102.637 333.744 101.921 330.115 101.921H34.7942Z" fill="white"/>
<path d="M265.011 190.463H99.2535C97.7325 190.463 96.2738 189.859 95.1983 188.782C94.1228 187.706 93.5186 186.246 93.5186 184.724C93.5186 183.203 94.1228 181.743 95.1983 180.667C96.2738 179.59 97.7325 178.986 99.2535 178.986H265.011C266.532 178.986 267.991 179.59 269.066 180.667C270.142 181.743 270.746 183.203 270.746 184.724C270.746 186.246 270.142 187.706 269.066 188.782C267.991 189.859 266.532 190.463 265.011 190.463Z" fill="#F2F2F2"/>
<path d="M265.011 312.839H99.2535C97.7325 312.839 96.2738 312.234 95.1983 311.158C94.1228 310.082 93.5186 308.622 93.5186 307.1C93.5186 305.578 94.1228 304.118 95.1983 303.042C96.2738 301.966 97.7325 301.361 99.2535 301.361H265.011C266.532 301.361 267.991 301.966 269.066 303.042C270.142 304.118 270.746 305.578 270.746 307.1C270.746 308.622 270.142 310.082 269.066 311.158C267.991 312.234 266.532 312.839 265.011 312.839Z" fill="#F2F2F2"/>
<path d="M332.322 251.691H31.9429C30.4219 251.691 28.9632 251.086 27.8877 250.01C26.8122 248.934 26.208 247.474 26.208 245.952C26.208 244.43 26.8122 242.97 27.8877 241.894C28.9632 240.818 30.4219 240.213 31.9429 240.213H332.322C333.843 240.213 335.301 240.818 336.377 241.894C337.452 242.97 338.057 244.43 338.057 245.952C338.057 247.474 337.452 248.934 336.377 250.01C335.301 251.086 333.843 251.691 332.322 251.691Z" fill="#F2F2F2"/>
<path d="M511.99 235.23L482.066 299.022L597.176 287.356L573.148 226.117L511.99 235.23Z" fill="#A0616A"/>
<path d="M538.752 601.879L527.838 601.786L523.007 558.68L539.113 558.817L538.752 601.879Z" fill="#A0616A"/>
<path d="M503.793 619.245C503.783 620.539 504.287 621.785 505.194 622.708C506.101 623.632 507.337 624.157 508.631 624.17L530.33 624.351L534.129 616.646L535.524 624.39L543.711 624.465L541.644 596.843L538.795 596.654L527.177 595.852L523.428 595.601L523.362 603.416L505.931 615.247C505.278 615.69 504.742 616.286 504.37 616.982C503.998 617.678 503.8 618.455 503.793 619.245Z" fill="#2F2E41"/>
<path d="M417.972 601.928L407.566 598.63L415.605 556.007L430.963 560.872L417.972 601.928Z" fill="#A0616A"/>
<path d="M379.457 608.25C379.068 609.484 379.184 610.823 379.779 611.972C380.375 613.121 381.402 613.987 382.635 614.38L403.323 620.933L409.217 614.684L408.276 622.497L416.081 624.975L422.215 597.965L419.548 596.947L408.677 592.765L405.167 591.422L402.81 598.873L382.675 605.057C381.92 605.289 381.233 605.701 380.673 606.257C380.112 606.813 379.695 607.497 379.457 608.25Z" fill="#2F2E41"/>
<path d="M591.933 269.417L487.271 288.607C487.271 288.607 470.483 301.173 474.974 305.673C479.464 310.173 480.161 309.476 477.211 312.428C474.26 315.38 467.881 319.327 467.818 321.91C467.755 324.493 420.919 440.359 420.919 440.359C420.919 440.359 426.123 437.756 422.22 441.661C418.317 445.567 418.317 448.794 418.317 448.794L400.103 571.848L429.683 573.591L458.648 461.405L523.256 356.599C523.256 356.599 529.666 450.059 529.935 456.275C530.204 462.491 534.107 454.68 530.204 462.491C526.301 470.302 523.699 465.095 526.301 470.302C528.903 475.51 516.928 581.527 516.928 581.527H543.927L601.836 361.783C601.836 361.783 622.438 298.961 591.933 269.417Z" fill="#2F2E41"/>
<path d="M561.101 93.6491L519.176 89.29L508.314 103.401L495.66 110.145C490.306 112.999 485.885 117.336 482.929 122.638C479.972 127.939 478.604 133.98 478.988 140.039L493.776 226.117C493.776 226.117 481.285 254.263 489.873 261.268C498.461 268.273 483.233 285.622 501.582 276.89C519.931 268.158 599.158 278.192 599.158 278.192L582.245 230.023L594.88 182.69L596.27 143.002C596.53 135.586 594.331 128.292 590.015 122.258C585.699 116.223 579.509 111.786 572.41 109.64L570.644 109.106L561.101 93.6491Z" fill="#0F7BE2"/>
<path d="M618.819 61.4874C619.094 73.3123 614.678 84.7622 608.333 94.8191C606.448 88.948 603.059 83.6045 599.525 78.5108C601.307 89.5301 599.409 100.83 594.126 110.661C593.94 110.794 593.747 110.918 593.548 111.032C588.377 114.145 581.82 115.406 576.226 113.157C587.785 100.69 589.256 80.0328 579.565 66.0484C576.822 62.0803 573.273 58.5709 571.574 54.0551C568.891 46.8499 571.47 38.9168 573.097 31.4046C574.618 24.413 574.885 16.093 570.197 10.9691C570.698 10.253 571.38 9.68302 572.173 9.31752C572.967 8.95202 573.843 8.80414 574.712 8.88904C577.602 9.29755 579.706 11.8113 581.046 14.4003C582.385 16.9892 583.269 19.8585 585.136 22.0947C588.594 26.2802 594.483 27.2698 599.446 29.4756C611.464 34.8323 618.531 48.3296 618.819 61.4874Z" fill="#2F2E41"/>
<path d="M309.188 624.451C309.187 624.654 309.226 624.856 309.304 625.044C309.382 625.232 309.496 625.403 309.64 625.547C309.784 625.691 309.954 625.805 310.143 625.883C310.331 625.961 310.532 626 310.736 626H640.27C640.68 626 641.074 625.837 641.364 625.546C641.655 625.255 641.818 624.861 641.818 624.451C641.818 624.04 641.655 623.646 641.364 623.355C641.074 623.065 640.68 622.901 640.27 622.901H310.736C310.532 622.901 310.331 622.94 310.143 623.018C309.954 623.096 309.784 623.21 309.64 623.354C309.496 623.498 309.382 623.669 309.304 623.857C309.227 624.045 309.187 624.247 309.188 624.451Z" fill="#CECECE"/>
<path d="M621.414 335.553C627.881 335.553 633.123 330.307 633.123 323.836C633.123 317.365 627.881 312.12 621.414 312.12C614.947 312.12 609.705 317.365 609.705 323.836C609.705 330.307 614.947 335.553 621.414 335.553Z" fill="#0F7BE2"/>
<path d="M517.656 54.7263C518.343 52.321 513.609 67.0242 515.893 67.2897C526.297 68.484 540.578 74.7014 547.824 77.602C548.151 77.564 548.477 77.5261 548.794 77.4787C549.571 77.3934 550.329 77.2702 551.078 77.128C567.95 73.9336 574.439 47.9986 574.439 47.7617C574.439 46.5958 571.642 14.5732 567.237 14.0993C566.08 13.9737 564.917 13.9104 563.753 13.9097H552.822C550.56 13.422 548.267 13.0894 545.959 12.9144H545.94C523.933 11.2366 506.581 24.6589 508.203 40.9913C508.213 41.0102 508.232 41.0292 508.241 41.0482C508.712 41.7496 509.124 42.4132 509.489 43.0482C509.844 43.6454 510.142 44.2141 510.401 44.7544C512.407 48.9252 507.25 54.1734 510.669 55.153C515.217 56.4558 498.71 99.2778 516.708 99.2778C507.954 101.769 515.761 61.3616 517.656 54.7263Z" fill="#2F2E41"/>
<path d="M537.301 79.8527C551.595 79.8527 563.183 68.2574 563.183 53.9539C563.183 39.6504 551.595 28.0552 537.301 28.0552C523.007 28.0552 511.419 39.6504 511.419 53.9539C511.419 68.2574 523.007 79.8527 537.301 79.8527Z" fill="#A0616A"/>
<path d="M508.203 42.4037C508.635 42.6312 509.057 42.8397 509.489 43.0482C509.94 43.2662 510.391 43.4843 510.842 43.6833C519.509 47.6171 526.563 48.0531 530.844 42.4037C530.958 39.431 531.625 36.5058 532.811 33.7777C532.602 36.8264 533.405 39.8588 535.095 42.4037H543.714C552.592 48.2996 557.15 48.9157 550.989 68.2719C549.271 73.6655 542.44 105.051 545.127 109.705C545.905 109.619 554.175 75.2431 554.924 75.1009C571.796 71.9065 582.517 44.0909 581.144 42.5174C581.151 38.0428 580.123 33.6273 578.14 29.6165C575.632 24.535 571.722 20.2786 566.873 17.3506C563.982 15.9481 560.969 14.8153 557.87 13.9666C557.793 13.9476 557.726 13.9286 557.649 13.9097C556.699 13.6538 555.73 13.4168 554.761 13.2177C552.758 12.7946 550.733 12.4876 548.695 12.2983C548.551 12.2888 548.407 12.2793 548.273 12.2793C547.459 12.2812 546.66 12.5005 545.96 12.9144C545.95 12.9144 545.95 12.9239 545.94 12.9239C545.44 13.2167 545.002 13.6066 544.654 14.0708C544.041 14.8519 543.71 15.8172 543.714 16.8103H534.116C533.761 16.8103 533.406 16.8197 533.051 16.8387C526.646 17.0577 520.552 19.6608 515.964 24.1384C511.375 28.616 508.621 34.646 508.241 41.0482C508.213 41.5032 508.203 41.9486 508.203 42.4037Z" fill="#2F2E41"/>
<path d="M564.792 34.1245C574.209 34.1245 581.843 26.4855 581.843 17.0622C581.843 7.63903 574.209 0 564.792 0C555.375 0 547.741 7.63903 547.741 17.0622C547.741 26.4855 555.375 34.1245 564.792 34.1245Z" fill="#2F2E41"/>
<path d="M621.546 328.667C622.378 327.354 622.915 325.876 623.12 324.335C623.325 322.794 623.193 321.226 622.733 319.741C622.273 318.256 621.497 316.888 620.457 315.733C619.417 314.578 618.138 313.662 616.71 313.05L616.795 259.542L602.01 255.879L602.374 319.433C601.523 321.915 601.611 324.624 602.622 327.045C603.634 329.467 605.497 331.433 607.861 332.571C610.224 333.71 612.922 333.941 615.444 333.222C617.967 332.502 620.138 330.882 621.546 328.667Z" fill="#A0616A"/>
<path d="M548.33 132.11L571.338 116.463C572.411 115.733 573.625 115.236 574.902 115.003C576.179 114.771 577.49 114.808 578.751 115.112C580.013 115.416 581.197 115.981 582.228 116.771C583.258 117.56 584.112 118.556 584.735 119.696L624.291 192.025L624.442 297.881L599.746 296.332L589.609 208.938L548.33 132.11Z" fill="#0F7BE2"/>
<path d="M371.629 372.174H125.737C120.389 372.174 115.259 374.3 111.478 378.085C107.696 381.869 105.571 387.001 105.571 392.353C105.571 397.705 107.696 402.838 111.478 406.622C115.259 410.406 120.389 412.532 125.737 412.532H371.629C376.977 412.532 382.106 410.406 385.888 406.622C389.67 402.838 391.794 397.705 391.794 392.353C391.794 387.001 389.67 381.869 385.888 378.085C382.106 374.3 376.977 372.174 371.629 372.174Z" fill="white"/>
<path d="M371.629 413.834H125.737C120.044 413.834 114.584 411.571 110.558 407.543C106.532 403.514 104.271 398.05 104.271 392.353C104.271 386.656 106.532 381.193 110.558 377.164C114.584 373.136 120.044 370.873 125.737 370.873H371.629C377.322 370.873 382.782 373.136 386.808 377.164C390.834 381.193 393.096 386.656 393.096 392.353C393.096 398.05 390.834 403.514 386.808 407.543C382.782 411.571 377.322 413.834 371.629 413.834ZM125.737 373.476C120.734 373.476 115.936 375.465 112.398 379.005C108.86 382.545 106.873 387.347 106.873 392.353C106.873 397.36 108.86 402.161 112.398 405.701C115.936 409.242 120.734 411.23 125.737 411.23H371.629C376.632 411.23 381.43 409.242 384.968 405.701C388.506 402.161 390.494 397.36 390.494 392.353C390.494 387.347 388.506 382.545 384.968 379.005C381.43 375.465 376.632 373.476 371.629 373.476H125.737Z" fill="#0F7BE2"/>
<path d="M386.129 460.236H277.616C276.095 460.236 274.636 459.631 273.561 458.555C272.485 457.479 271.881 456.019 271.881 454.497C271.881 452.975 272.485 451.516 273.561 450.44C274.636 449.363 276.095 448.759 277.616 448.759H386.129C387.65 448.759 389.108 449.363 390.184 450.44C391.259 451.516 391.864 452.975 391.864 454.497C391.864 456.019 391.259 457.479 390.184 458.555C389.108 459.631 387.65 460.236 386.129 460.236Z" fill="#0F7BE2"/>
</g>
<defs>
<clipPath id="clip0_77_615">
<rect width="642" height="626" fill="white"/>
</clipPath>
</defs>
</svg>
