<svg width="35" height="37" viewBox="0 0 35 37" fill="none" xmlns="http://www.w3.org/2000/svg">
<path d="M17.2441 8.49718C20.7512 8.49718 23.5964 11.5139 23.5964 15.2324C23.5964 15.9265 23.4993 16.5939 23.3159 17.2232C26.4848 19.4009 28.4236 23.1346 28.4236 27.1734C28.4236 28.3519 26.7366 28.3519 26.7366 27.1734C26.7366 23.8211 25.1791 20.7281 22.6 18.8593C21.4706 20.7281 19.4922 21.9714 17.2441 21.9714C14.996 21.9714 13.0176 20.7281 11.8881 18.8593C9.30908 20.7281 7.75157 23.8211 7.75157 27.1734C7.75157 28.3519 6.06457 28.3519 6.06457 27.1734C6.06457 23.1346 8.00336 19.4009 11.1723 17.2232C10.9889 16.5939 10.8918 15.9265 10.8918 15.2324C10.8918 11.5139 13.737 8.49718 17.2441 8.49718ZM17.2441 0C26.7654 0 34.4882 8.18826 34.4882 18.2834C34.4882 28.3786 26.7654 36.5668 17.2441 36.5668C7.72279 36.5668 0 28.3786 0 18.2834C0 8.18826 7.72279 0 17.2441 0ZM17.2441 1.78868C8.65442 1.78868 1.687 9.17604 1.687 18.2834C1.687 27.3908 8.65442 34.7782 17.2441 34.7782C25.8338 34.7782 32.8012 27.3908 32.8012 18.2834C32.8012 9.17604 25.8338 1.78868 17.2441 1.78868ZM17.2441 10.2859C14.6686 10.2859 12.5788 12.5017 12.5788 15.2324C12.5788 17.9669 14.6686 20.1789 17.2441 20.1789C19.8196 20.1789 21.9094 17.9669 21.9094 15.2324C21.9094 12.5017 19.8196 10.2859 17.2441 10.2859Z" fill="white"/>
</svg>
