<svg width="20" height="20" viewBox="0 0 20 20" fill="none" xmlns="http://www.w3.org/2000/svg">
<path d="M0 1C0 0.447715 0.447715 0 1 0H19C19.5523 0 20 0.447715 20 1V19C20 19.5523 19.5523 20 19 20H1C0.447716 20 0 19.5523 0 19V1Z" fill="#0C4DA2"/>
<path d="M1.81934 2.6665C1.81934 2.11422 2.26705 1.6665 2.81934 1.6665H17.183C17.7353 1.6665 18.183 2.11422 18.183 2.6665V17.3332C18.183 17.8855 17.7353 18.3332 17.183 18.3332H2.81934C2.26705 18.3332 1.81934 17.8855 1.81934 17.3332V2.6665Z" fill="white"/>
<path d="M15.1429 10.5143H10.8571V15.4858C10.8571 15.7495 10.7668 16.0024 10.6061 16.1888C10.4453 16.3753 10.2273 16.4801 10 16.4801C9.77267 16.4801 9.55465 16.3753 9.39391 16.1888C9.23316 16.0024 9.14286 15.7495 9.14286 15.4858V10.5143H4.85714C4.62981 10.5143 4.4118 10.4096 4.25105 10.2231C4.09031 10.0367 4 9.78376 4 9.52006C4 9.25636 4.09031 9.00346 4.25105 8.81699C4.4118 8.63053 4.62981 8.52577 4.85714 8.52577H9.14286V3.55434C9.14286 3.29064 9.23316 3.03774 9.39391 2.85128C9.55465 2.66481 9.77267 2.56006 10 2.56006C10.2273 2.56006 10.4453 2.66481 10.6061 2.85128C10.7668 3.03774 10.8571 3.29064 10.8571 3.55434V8.52577H15.1429C15.3702 8.52577 15.5882 8.63053 15.7489 8.81699C15.9097 9.00346 16 9.25636 16 9.52006C16 9.78376 15.9097 10.0367 15.7489 10.2231C15.5882 10.4096 15.3702 10.5143 15.1429 10.5143Z" fill="#0C4DA2"/>
</svg>
