<?xml version="1.0" standalone="no"?>
<!DOCTYPE svg PUBLIC "-//W3C//DTD SVG 20010904//EN"
 "http://www.w3.org/TR/2001/REC-SVG-20010904/DTD/svg10.dtd">
<svg version="1.0" xmlns="http://www.w3.org/2000/svg"
 width="100.000000pt" height="100.000000pt" viewBox="0 0 100.000000 100.000000"
 preserveAspectRatio="xMidYMid meet">

<g transform="translate(0.000000,100.000000) scale(0.100000,-0.100000)"
fill="#fff" stroke="none">
<path d="M277 862 c-22 -24 -21 -55 1 -75 16 -15 47 -17 230 -17 l212 0 0
-117 0 -117 -33 32 c-35 34 -56 39 -88 22 -13 -7 -19 -21 -19 -44 0 -28 13
-45 89 -119 49 -48 96 -87 106 -87 20 0 192 164 201 192 8 28 -22 68 -51 68
-13 0 -40 -14 -60 -31 l-35 -31 0 159 c0 110 -4 163 -12 171 -9 9 -82 12 -268
12 -236 0 -258 -1 -273 -18z"/>
<path d="M113 567 c-51 -51 -93 -101 -93 -110 0 -23 36 -57 60 -57 10 0 35 14
55 31 l35 31 0 -159 c0 -110 4 -163 12 -171 9 -9 82 -12 268 -12 236 0 258 1
273 18 22 24 21 55 -1 75 -16 15 -47 17 -230 17 l-212 0 0 117 0 117 33 -32
c37 -36 66 -41 90 -14 33 36 21 62 -71 154 -49 48 -97 88 -107 88 -10 0 -60
-42 -112 -93z"/>
</g>
</svg>
